<svg width="45" height="45" viewBox="0 0 45 45" fill="none" xmlns="http://www.w3.org/2000/svg">
<rect width="45" height="45" fill="black"/>
<path d="M11.8289 35.6679V30.9113L11.909 31.4691C12.7808 31.4691 13.1588 31.3488 13.6303 30.9113C14.1106 30.463 11.829 28.1012 11.829 27.2701L13.6303 28.0082C13.6303 27.4725 13.5191 27.0132 13.2968 26.6306C13.0833 26.2478 12.763 25.958 12.336 25.7612C11.9179 25.5644 11.3975 25.466 10.7748 25.466L11.909 25.1707L11.8289 21.5787H11.2819C12.127 21.5787 12.7675 21.36 13.2034 20.9226C13.6393 20.4743 13.617 17.5547 13.617 16.7893V16.7565C13.617 16.0458 13.4079 15.4826 12.9898 15.0671C12.5718 14.6516 13.0566 14.7719 12.336 14.7719L11.8289 16.7565V12H18.4608C19.7863 12 20.9161 12.2405 21.8502 12.7217C22.7931 13.1918 23.5137 13.8753 24.0118 14.7719C24.5101 15.6576 24.7591 16.7237 24.7591 17.9703V18.0031C24.7591 18.9216 24.5856 19.7471 24.2387 20.4798C23.8918 21.2124 23.4158 21.8138 22.8109 22.284C22.2149 22.7432 21.5432 23.033 20.796 23.1533V23.2845C21.6589 23.3063 22.4506 23.5633 23.1712 24.0554C23.9006 24.5474 24.4833 25.2089 24.9192 26.04C25.3551 26.86 25.573 27.7841 25.573 28.8119V28.8448C25.573 30.2116 25.2928 31.4089 24.7324 32.4368C24.172 33.4537 23.3847 34.2464 22.3705 34.815C21.3565 35.3836 20.1599 35.6679 18.781 35.6679H11.8289ZM9.00004 35.6679V12H14.6578V35.6679H9.00004Z" fill="white"/>
<path d="M34.6141 24.3601C34.5994 24.3674 34.5796 24.3829 34.5701 24.3966C34.5537 24.4175 34.5459 24.4203 34.495 24.4203C34.4483 24.4203 34.438 24.4175 34.438 24.4057C34.438 24.3975 34.4311 24.3847 34.4233 24.3783C34.4 24.3592 34.3931 24.3638 34.4077 24.3865C34.4147 24.3984 34.4181 24.4111 34.4147 24.4139C34.4121 24.4175 34.3136 24.4203 34.1962 24.4203C33.5771 24.4203 33.003 24.485 32.4366 24.618L32.2958 24.6508L32.2034 24.6271C32.0981 24.5989 32.0152 24.5843 31.9625 24.5843C31.8615 24.5843 31.7873 24.6262 31.7873 24.6846C31.7873 24.7092 31.7847 24.7128 31.7726 24.7073C31.6284 24.6436 31.321 24.6299 31.1388 24.6791C31.0016 24.7156 30.9109 24.7739 30.866 24.8559C30.8444 24.8942 30.8418 24.9079 30.8418 24.9817C30.8418 25.0619 30.8427 25.0664 30.8824 25.1503C30.9049 25.1977 30.9437 25.2642 30.9679 25.2979C30.9921 25.3316 31.0111 25.3608 31.0093 25.3626C31.0076 25.3635 30.9618 25.3936 30.9075 25.4283C30.8159 25.4866 30.8107 25.4911 30.8341 25.4957C30.8565 25.5003 30.8591 25.5039 30.8565 25.5322C30.8513 25.6023 30.7063 25.8265 30.5025 26.079C30.3808 26.2303 30.1286 26.4982 30.1071 26.4982C30.0786 26.4982 29.8955 26.5511 29.7885 26.5894C29.6477 26.6404 29.4379 26.7489 29.3179 26.8327C29.2031 26.9138 29.0761 27.0414 29.0356 27.1189C28.976 27.231 28.8801 27.2811 28.641 27.323C28.4925 27.3495 28.4916 27.3504 28.5581 27.3795C28.5883 27.3932 28.6013 27.4041 28.6013 27.416C28.6013 27.4716 28.4761 27.5928 28.1307 27.8699C27.8984 28.0567 27.7888 28.1579 27.6636 28.3019C27.0298 29.0319 26.7026 29.7929 26.6154 30.7362C26.5999 30.903 26.5947 31.3486 26.6059 31.5427C26.6232 31.8371 26.6663 32.2445 26.7086 32.5198L26.7242 32.6218L26.6914 32.6565C26.6508 32.6984 26.6413 32.7321 26.6413 32.8351C26.6413 32.9299 26.6309 32.9618 26.5826 33.0073C26.5368 33.0502 26.4971 33.0721 26.39 33.1103C26.3417 33.1267 26.2985 33.145 26.2933 33.1504C26.2743 33.1705 26.3002 33.1769 26.3633 33.1668C26.4254 33.1577 26.4488 33.1632 26.4358 33.1842C26.4324 33.1887 26.39 33.227 26.3417 33.268C25.9342 33.6143 25.6803 33.9698 25.5957 34.3143C25.5672 34.4291 25.5672 34.6096 25.5948 34.7144C25.7028 35.1145 26.1129 35.3733 26.7794 35.4626C26.921 35.4818 27.3743 35.49 27.5496 35.4763C27.9641 35.4435 28.3042 35.3842 28.856 35.2484C29.494 35.0917 29.8886 35.0343 30.4058 35.0224C31.5153 34.9987 32.4642 35.2958 33.2516 35.9147C33.3 35.9529 33.3475 35.9885 33.3578 35.994C33.3751 36.004 33.376 36.0031 33.3708 35.9794C33.3423 35.8563 33.1851 35.6586 32.9892 35.5C32.364 34.9942 31.4298 34.6961 30.354 34.6588C30.1632 34.6524 29.9534 34.6624 29.6719 34.6925C29.4034 34.7208 29.2825 34.7381 28.5408 34.8556C27.6696 34.9933 27.459 35.016 27.098 35.0078C26.8787 35.0033 26.7864 34.9923 26.6758 34.955C26.5619 34.9167 26.5126 34.8839 26.4159 34.7827C26.3391 34.7016 26.3192 34.6752 26.2882 34.6096C26.207 34.4346 26.2251 34.2915 26.3503 34.1192C26.6094 33.7638 27.427 33.4339 28.2084 33.3692C28.3336 33.3591 28.6375 33.3628 28.6893 33.3755C28.71 33.3801 28.7161 33.3901 28.7308 33.4421C28.7506 33.5141 28.7662 33.5378 28.8024 33.5587C28.8456 33.5833 28.9613 33.5788 29.1072 33.5478L29.229 33.5223L29.2626 33.5396C29.2903 33.5533 29.3049 33.5724 29.3403 33.6389C29.374 33.7 29.3939 33.7273 29.4206 33.7456C29.4897 33.792 29.6503 33.8094 30.1338 33.8258C30.5284 33.8385 30.6881 33.865 30.8548 33.9443C31.0076 34.0163 31.0387 34.0208 31.2839 34.0044C31.3832 33.9971 31.4005 33.998 31.4195 34.0108C31.4376 34.0235 31.4402 34.0308 31.4359 34.0573C31.4324 34.0837 31.435 34.091 31.454 34.1037C31.473 34.1174 31.4946 34.1201 31.5688 34.1192C31.6224 34.1183 31.6647 34.1138 31.6716 34.1074C31.6785 34.1019 31.6837 34.081 31.6837 34.0618C31.6837 34.019 31.6802 34.0199 31.8097 34.0445C31.8615 34.0545 31.9176 34.0627 31.9349 34.0627C31.9712 34.0627 31.9997 34.0436 31.9919 34.0245C31.9876 34.0117 31.9971 34.0108 32.0575 34.0144C32.1326 34.019 32.1888 34.0062 32.2043 33.9798C32.2103 33.9698 32.2052 33.957 32.181 33.9297C32.1646 33.9105 32.1257 33.8458 32.0964 33.7866C32.0359 33.6672 31.9859 33.607 31.9453 33.607C31.9263 33.6061 31.9159 33.5979 31.8969 33.566C31.8641 33.5113 31.8175 33.4886 31.7113 33.4785C31.6655 33.474 31.435 33.4685 31.2001 33.4658C30.7572 33.4603 30.5932 33.4521 30.4645 33.4284C30.3678 33.4111 30.2513 33.3755 30.1874 33.3446L30.1364 33.32L30.202 33.2716C30.2383 33.2452 30.2841 33.2151 30.3048 33.206C30.3505 33.1851 30.5396 33.1495 30.6044 33.1504C30.6631 33.1504 30.7823 33.1832 30.9195 33.237C31.0525 33.2899 31.1354 33.3117 31.2485 33.3263C31.3512 33.3382 31.4531 33.3282 31.5308 33.2972C31.5714 33.2808 31.5766 33.2808 31.6163 33.2944C31.6457 33.3045 31.6733 33.3072 31.7044 33.3026C31.7424 33.2981 31.7527 33.2999 31.7648 33.3145C31.7726 33.3236 31.8037 33.3436 31.833 33.3573C31.8909 33.3856 31.8658 33.3837 32.1689 33.3801L32.2535 33.3792L32.2665 33.3518C32.2734 33.3373 32.2898 33.3218 32.301 33.319C32.3373 33.3099 32.3407 33.2899 32.3165 33.2197C32.3045 33.1842 32.2855 33.1231 32.2742 33.083C32.263 33.0438 32.2501 33.0073 32.2457 33.0028C32.2423 32.9991 32.1905 32.9873 32.1318 32.9773C32.0731 32.9672 31.9625 32.9454 31.8866 32.9281C31.7078 32.888 31.5593 32.8652 31.3297 32.8415C30.9644 32.805 30.8815 32.7886 30.7995 32.7376L30.7607 32.7139L30.8004 32.6246C30.8651 32.4787 30.9118 32.3575 30.9446 32.2491C30.9783 32.1397 31.0102 31.9665 31.0102 31.8909C31.0111 31.8344 31.0326 31.7742 31.0957 31.6612C31.2666 31.3541 31.321 31.2311 31.321 31.1454C31.321 31.1098 31.315 31.0962 31.2787 31.046C31.2053 30.9467 31.2131 30.9248 31.2986 30.9868C31.3305 31.0096 31.3599 31.0278 31.3651 31.0278C31.3849 31.0278 31.4091 30.9339 31.4669 30.6314C31.4998 30.4555 31.5447 30.2486 31.5662 30.1702C31.6517 29.8539 31.7562 29.6115 31.8917 29.4119L31.9487 29.3281L32.0178 29.3217C32.1128 29.3135 32.1957 29.2816 32.3606 29.1914C32.5808 29.0702 32.6628 29.0474 32.8752 29.0465C33.0444 29.0455 33.0444 29.0455 33.0496 29.1659C33.0539 29.2643 33.0686 29.308 33.1143 29.3518C33.1584 29.3946 33.3095 29.4976 33.3216 29.493C33.3432 29.4839 33.3328 29.4466 33.2939 29.3964C33.243 29.3308 33.2421 29.3062 33.2931 29.2552C33.3483 29.1987 33.3855 29.1914 33.4873 29.2187C33.5366 29.2324 33.5763 29.2488 33.5884 29.2606C33.616 29.288 33.6436 29.3791 33.6497 29.4602C33.6592 29.5969 33.6151 29.6844 33.458 29.8394C33.3509 29.9469 33.3406 29.9679 33.4019 29.9588C33.4399 29.9533 33.4822 29.925 33.6134 29.8157C33.7006 29.7428 33.7887 29.679 33.8025 29.679C33.8129 29.679 33.8077 29.7355 33.7939 29.7637C33.7861 29.7801 33.7628 29.8175 33.7429 29.8476C33.679 29.9433 33.6738 29.9706 33.7213 29.9706C33.7507 29.9706 33.7714 29.946 33.8388 29.8312C33.8983 29.7291 33.945 29.6607 33.9545 29.6607C33.9631 29.6607 33.9752 29.7209 33.9899 29.8385C33.995 29.8831 34.0037 29.9305 34.008 29.9433C34.0158 29.966 34.0166 29.966 34.0296 29.9478C34.1168 29.8266 34.0883 29.6307 33.9501 29.4055C33.8742 29.2807 33.7136 29.0875 33.6359 29.0282C33.6143 29.0109 33.553 28.9745 33.5003 28.9462C33.4148 28.9006 33.3578 28.8587 33.382 28.8587C33.4131 28.8587 33.5564 28.8259 33.6764 28.7913C33.875 28.7329 33.9881 28.7165 34.0831 28.7293C34.147 28.7384 34.1651 28.7457 34.2221 28.7831C34.3499 28.8687 34.3931 28.887 34.4518 28.8851C34.5148 28.8833 34.5545 28.9043 34.5934 28.9608C34.6279 29.01 34.6348 29.0373 34.6478 29.1668C34.6538 29.2278 34.6633 29.2825 34.6694 29.2889C34.6745 29.2944 34.6884 29.2962 34.7013 29.2925C34.7358 29.2834 34.7497 29.2369 34.7574 29.103C34.7669 28.9644 34.773 28.9225 34.7877 28.917C34.8075 28.9088 34.8645 28.9307 34.8973 28.959C34.9362 28.9927 34.9854 29.0939 35.0251 29.2178C35.0406 29.267 35.057 29.3044 35.0622 29.3026C35.0674 29.3007 35.0795 29.288 35.089 29.2743C35.1166 29.236 35.1123 29.1303 35.0778 28.9872C35.0622 28.9252 35.0519 28.8733 35.0536 28.8715C35.0553 28.8687 35.0786 28.8815 35.1054 28.8988C35.1701 28.9398 35.2461 28.9717 35.2625 28.9644C35.2755 28.9599 35.2746 28.9562 35.2608 28.9307C35.2211 28.8605 35.095 28.743 34.9716 28.6619C34.8084 28.5543 34.7039 28.5124 34.3991 28.4304C33.7913 28.2672 33.4416 28.1569 33.1601 28.0412C33.0461 27.9938 32.8726 27.9063 32.8122 27.8653L32.7716 27.838L32.7932 27.8124C32.8337 27.7669 32.8994 27.6083 32.9883 27.3413C33.0876 27.0423 33.1463 26.8974 33.2136 26.7835C33.2715 26.6851 33.3639 26.5848 33.4321 26.5465C33.4727 26.5237 33.4968 26.5 33.5443 26.439C33.6618 26.284 33.8224 26.1382 34.008 26.0161C34.1271 25.9368 34.3249 25.8238 34.3516 25.8174C34.3637 25.8156 34.4069 25.822 34.4483 25.832C34.4889 25.8429 34.5338 25.8511 34.5468 25.8511C34.6115 25.8502 34.6884 25.7846 34.7315 25.6926C34.7618 25.6297 34.7643 25.5941 34.741 25.5695C34.7246 25.5522 34.6728 25.5322 34.6435 25.5322C34.6012 25.5322 34.6633 25.4866 34.7428 25.4602C34.7877 25.4447 34.7946 25.4255 34.7877 25.3362L34.7816 25.2615L34.8386 25.2141C34.8697 25.1876 34.912 25.1457 34.9344 25.1202L34.9733 25.0746L35.146 25.0856C35.2409 25.092 35.3212 25.0956 35.323 25.0929C35.3256 25.0901 35.2522 25.081 35.1589 25.0719C35.0665 25.0628 34.9871 25.0528 34.9819 25.0491C34.9759 25.0455 34.9776 25.03 34.9871 25.0017C34.9983 24.9653 35.0052 24.9571 35.0406 24.9416C35.0631 24.9315 35.0899 24.9206 35.1011 24.917C35.1123 24.9133 35.1201 24.9088 35.1175 24.9069C35.1158 24.9051 35.0873 24.9115 35.0553 24.9224C34.9862 24.9443 34.9854 24.9443 34.9767 24.8605L34.9716 24.803L35.019 24.7493C35.076 24.6837 35.0976 24.6244 35.0924 24.5515C35.0881 24.4932 35.0639 24.4613 35.0173 24.4485C34.9776 24.4376 34.7652 24.4203 34.6728 24.4203C34.634 24.4203 34.602 24.4166 34.602 24.413C34.602 24.3993 34.6236 24.3765 34.6495 24.3619C34.6702 24.351 34.672 24.3483 34.6581 24.3483C34.6486 24.3483 34.6288 24.3537 34.6141 24.3601Z" fill="white"/>
</svg>
